<svg width="295" height="151" viewBox="0 0 295 151" fill="none" xmlns="http://www.w3.org/2000/svg">
<path d="M116 44H158V149H116V44Z" fill="#CF2C1B"/>
<path d="M80 44H193V57H80V44Z" fill="#CF2C1B"/>
<path d="M0 0.289429H66V149.289H0V0.289429Z" fill="#3A3180"/>
<path fill-rule="evenodd" clip-rule="evenodd" d="M35.9996 1.2667C45.9996 -0.806214 71.4992 0.289237 76.4996 0.289164C112.5 0.28842 136.253 8.91512 135.58 47.2657C135.111 73.9368 121.789 96.0746 75.9996 94.6974C70.3312 94.5269 56.2991 95.8798 51 94.6974C51 94.6974 25.9996 3.33973 35.9996 1.2667ZM104 24.9474C96.1085 19.5438 82.1992 16.3041 66 19L64.9996 75.7882C87.781 75.7882 92.5294 75.9391 100.488 70.1886C108.521 64.3843 112.627 55.9919 112.75 47.7062C112.872 39.4232 111.954 30.3943 104 24.9474Z" fill="#3A3180"/>
<path d="M181.5 94.0001C188.5 88.5 203.5 83.5013 219 94.5011C225.006 98.7632 224.862 110.004 217 118.5C227.4 133.687 217.999 162 180.5 144.5C172.517 138.513 179.968 138.002 180 138C182.581 139.301 183.577 140.032 185.914 141.11C194.353 145.005 200.717 146.916 201.5 143C201.802 141.492 199.517 138.299 196.205 134.342C194.629 132.46 192.821 130.405 190.948 128.276C185.552 122.143 179.618 115.397 177.152 110.406C176.31 108.701 175.872 107.201 176 106C176.079 103.195 177.152 97.4163 181.5 94.0001ZM212 96.0001C206.5 93.8657 202.5 90.5001 198.5 92.5001C195.426 96.9675 198.999 101.304 216.934 118.572C224.797 110.076 224.94 98.8354 218.934 94.5734C218.65 97.701 216.71 97.828 212 96.0001Z" fill="#3A3184"/>
<path d="M249 98.8V97V88H270.312L294.876 149H266.5H266.31L249 98.8Z" fill="#3A3184"/>
<path d="M224.718 149H218.765L243.663 88H249L249 92.4688L224.718 149Z" fill="#3A3184"/>
<path d="M244 93H253V99H244V93Z" fill="#3A3184"/>
<path d="M232 124H262V130H232V124Z" fill="#3A3184"/>
</svg>
